<?xml version="1.0" encoding="UTF-8"?>
<!DOCTYPE svg PUBLIC "-//W3C//DTD SVG 1.1//EN" "http://www.w3.org/Graphics/SVG/1.1/DTD/svg11.dtd">
<!-- Creator: CorelDRAW 2020 (64-Bit) -->
<svg xmlns="http://www.w3.org/2000/svg" xml:space="preserve" width="297mm" height="210mm" version="1.1" style="shape-rendering:geometricPrecision; text-rendering:geometricPrecision; image-rendering:optimizeQuality; fill-rule:evenodd; clip-rule:evenodd"
viewBox="0 0 29700 21000"
 xmlns:xlink="http://www.w3.org/1999/xlink"
 xmlns:xodm="http://www.corel.com/coreldraw/odm/2003">
 <defs>
  <style type="text/css">
   <![CDATA[
    .fil0 {fill:#A00E07}
   ]]>
  </style>
 </defs>
 <g id="Слой_x0020_1">
  <metadata id="CorelCorpID_0Corel-Layer"/>
  <g id="_1615540441472">
   <g>
    <path class="fil0" d="M2947.25 12808.41c0,923.14 303.77,1759.16 793.11,2497.73 428.72,647.08 1074.08,1177.7 1766.46,1524.42 1460.32,731.37 3295.37,565.09 4603.88,-381.55 207.52,-150.12 329.8,-277.63 451.84,-370.84 58.48,-44.63 87.93,-77.56 142.47,-131.81l487.22 -588.62c460.21,-623.21 825.9,-1600.95 825.9,-2464.94l0 -3712.73 -2236.07 0 0 3459.59c0,870.12 -388.43,1574.51 -961.76,1970.46 -645.66,445.94 -1431.37,573.61 -2184.74,268.94 -729.17,-294.87 -1230.2,-908.39 -1397.51,-1682.37 -75.37,-348.64 -33.63,-2824.86 -33.63,-3552.54 0,-199.5 40.29,-464.08 -63.31,-464.08l-2193.86 0 0 3628.34z"/>
    <path class="fil0" d="M5900.55 7197.12l0 84.39 -569.56 0c9.76,-117.25 109.18,-154.92 183.62,-217.19l440.44 -403.38c76.78,-98.49 124.72,-129.18 156.46,-265.47 172.67,-40.19 301.71,-9.94 421.65,-295.55 49.46,-117.68 22.25,-147.42 147.92,-147.42 73.25,0 83.97,105.49 253.14,105.49 180.94,0 11.94,-103.8 252.42,-42.91 107.49,27.21 98.49,-28.97 211.66,-104.74 182.65,42.53 33.36,126.54 274.24,126.54 116.76,0 42.21,-189.85 232.02,-189.85 88.32,0 130.83,48.88 172.49,101.78 147.72,187.56 338.72,537.52 454.8,663.22 51.18,55.41 90.3,67.82 148.3,125.95 123.53,123.73 168.08,160.46 363.57,206 85.61,-127.84 168.8,-109.73 253.21,-0.07 64.04,83.21 47.09,56.46 153.58,99.56 117.73,47.66 120.77,53.49 167.06,128.26 15.47,24.97 5.48,12.06 25.16,38.12 59.75,79.19 19.01,-27.58 54.94,71.66l-632.85 0c0,-215.09 8.5,-158.16 -58.63,-194.54l-697.78 -272.57c-1091.2,-436.12 -601.53,-371.82 -1635.23,-4.89l-622.29 242.6c-79.18,30.3 -113.96,36.33 -135.16,75.8 -20.11,37.52 -15.18,11.26 -15.18,69.21zm-2953.3 970.39l0 400.81 2236.06 0 0 -1096.95 886 0c0,-317.3 -77.81,-223.05 331.55,-385.69l1081.83 -437.05 1084.87 433.98c408.34,163.3 328.51,80.95 328.51,388.76l885.99 0 0 1096.95 2236.07 0c0,-919.8 -44.98,-1422.42 -428.82,-2250.26 -293.16,-632.23 -702.32,-1097.88 -1211.15,-1552.31 -95.35,-85.16 -202.83,-161.51 -309.65,-238.84 -61.91,-44.85 -100.38,-68.47 -166.61,-107.61 -67.27,-39.74 -100.03,-68.89 -168.97,-105.3 -773.5,-408.68 -1388.07,-597.57 -2313.53,-597.57 -789.39,0 -1590.9,256.63 -2171.9,591.57 -892.43,514.45 -1427.86,1152.89 -1878.43,2045.24 -217.59,430.91 -421.82,1165.24 -421.82,1814.27z"/>
    <path class="fil0" d="M6364.66 10213.71c0,222.2 56.93,474.02 133.14,626.28 225.96,451.57 984.89,835.19 984.89,1314.49 0,165.91 -2.34,326.84 -110.98,458.59 -303.37,368 -753.91,119.7 -753.91,-142.16 0,-73.73 -9.7,-253.15 189.85,-253.15 132.35,0 185.37,101.29 210.94,210.94 81.77,-59.9 63.28,-106.84 63.28,-253.14 0,-221 -514.25,-560.2 -717.21,-696.14 0,973.45 -211.34,1787.19 572.98,2253.75 325.42,193.6 781.07,191.28 1106.44,-4.73 287.13,-172.99 556.64,-531.15 556.64,-877.82 0,-736.7 29,-947.34 -490.41,-1471.44 -257.58,-259.91 -627.62,-474.29 -627.62,-954.51 0,-544.97 523.52,-666.06 763.48,-447.06 154.98,141.45 179.12,468.17 -88.45,468.17 -70.06,0 -108.21,-28.03 -144.13,-66.83 -35.31,-38.07 -22.9,-27.6 -41.99,-63.48l-45.92 -80.65c-26.18,112.52 -42.18,26.63 -42.18,210.96 0,263.63 311.65,449.02 494.08,581.75l223.14 156.57 0 -2004.03 -2236.06 0 0 1033.64z"/>
    <path class="fil0" d="M8199.93 7302.59l-1434.48 0 355.66 -171.74c440.63,-178.45 207.92,-252.02 988.08,114.81l90.74 56.93zm-1919.66 0c0,97.77 -30.28,210.96 63.28,210.96l2341.56 0 0 -210.96c-143.14,-33.34 -1119.16,-485.2 -1202.42,-485.2 -37.28,0 -522.36,207.17 -602.86,240.95 -104.72,44 -193.49,78.44 -297.04,124.88 -82.52,36.97 -221.15,100.41 -302.52,119.37z"/>
    <polygon class="fil0" points="7841.3,8568.32 8010.07,8568.32 8010.07,7619.02 7841.3,7619.02 "/>
    <polygon class="fil0" points="8136.64,8568.32 8305.4,8568.32 8305.4,7619.02 8136.64,7619.02 "/>
    <polygon class="fil0" points="7250.65,8568.32 7419.4,8568.32 7419.4,7619.02 7250.65,7619.02 "/>
    <polygon class="fil0" points="7545.97,8568.32 7714.73,8568.32 7714.73,7619.02 7545.97,7619.02 "/>
    <path class="fil0" d="M6955.3 7682.3l0 886.02 168.78 0 0 -949.3 -105.49 0c-48.59,0 -63.29,14.67 -63.29,63.28z"/>
    <polygon class="fil0" points="5457.53,8568.32 5647.41,8568.32 5647.41,8230.79 5457.53,8230.79 "/>
    <polygon class="fil0" points="6006.02,8568.32 6195.88,8568.32 6195.88,8230.79 6006.02,8230.79 "/>
    <path class="fil0" d="M5731.8 8505.01c0,48.61 14.68,63.31 63.29,63.31l126.57 0 0 -337.53 -189.86 0 0 274.22z"/>
    <polygon class="fil0" points="8451.12,8559.12 8619.87,8559.12 8619.87,7609.82 8451.12,7609.82 "/>
    <polygon class="fil0" points="6638.24,8568.32 6806.99,8568.32 6806.99,7619.02 6638.24,7619.02 "/>
    <polygon class="fil0" points="6340.3,8568.32 6509.06,8568.32 6509.06,7619.02 6340.3,7619.02 "/>
    <polygon class="fil0" points="5457.53,8046.03 5647.41,8046.03 5647.41,7708.5 5457.53,7708.5 "/>
    <polygon class="fil0" points="6006.02,8046.03 6195.88,8046.03 6195.88,7708.5 6006.02,7708.5 "/>
    <path class="fil0" d="M5731.8 7982.72c0,48.61 14.68,63.31 63.29,63.31l126.57 0 0 -337.53 -189.86 0 0 274.22z"/>
    <polygon class="fil0" points="8772.78,8568.32 8962.66,8568.32 8962.66,8230.79 8772.78,8230.79 "/>
    <polygon class="fil0" points="9321.27,8568.32 9511.13,8568.32 9511.13,8230.79 9321.27,8230.79 "/>
    <path class="fil0" d="M9047.05 8505.01c0,48.61 14.68,63.31 63.29,63.31l126.57 0 0 -337.53 -189.86 0 0 274.22z"/>
    <polygon class="fil0" points="8772.78,8046.03 8962.66,8046.03 8962.66,7708.5 8772.78,7708.5 "/>
    <polygon class="fil0" points="9321.27,8046.03 9511.13,8046.03 9511.13,7708.5 9321.27,7708.5 "/>
    <path class="fil0" d="M9047.05 7982.72c0,48.61 14.68,63.31 63.29,63.31l126.57 0 0 -337.53 -189.86 0 0 274.22z"/>
   </g>
   <polygon class="fil0" points="20401.23,9959.66 21310,9954.46 21309.87,8207.85 21883.84,8207.85 21883.82,9956.29 22789.88,9954.46 22789.75,5890.04 21883.79,5886.75 21883.33,7424.39 21315.96,7424.39 21309.61,5890.04 20401.23,5884.62 "/>
   <path class="fil0" d="M15638.56 9018.48c-20.35,-181.65 -6.06,-1367.33 -6.06,-1653.98 0,-192.68 -35.17,-626.97 80.66,-748.88 56.67,-59.64 456.29,-228.46 490.17,204.34 38.64,493.34 3.11,1144.04 3.11,1654.44 0,218.2 107.68,981.38 -402.06,809.78 -105.54,-35.52 -150.78,-131.32 -165.82,-265.7zm76.96 -3189.51c-473.29,58.96 -803.92,322.92 -922.75,714.49 -111.78,368.47 -66.18,1152.08 -66.18,1582.73 0,507.83 -53.24,1070.11 194.09,1454.85 203.32,316.28 672.64,496.78 1205,429.87 1178.97,-148.21 986.67,-1199.4 986.67,-2298.2 0,-515.39 62.83,-1071.16 -198.07,-1453.2 -208.1,-304.74 -678.02,-495.42 -1198.76,-430.54z"/>
   <path class="fil0" d="M18423.52 8577.83l-875.92 0c0.03,497.61 -10.41,674.27 231.8,1037.73 163.79,245.75 451.54,384.78 879.95,406.68 814.41,41.62 1386.01,-404.35 1343.65,-1222.25 -27.19,-525.08 -364.61,-829.05 -747.14,-1138.61 -127.82,-103.43 -235.03,-193.83 -357.64,-295.52 -143.02,-118.59 -656.64,-440.61 -368.01,-740.58 109.63,-113.95 360.04,-117.98 453.34,2.78 97.32,125.92 71.77,396.38 81.92,570.57l869.24 8.07c74.64,-923.72 -226.64,-1356.58 -1121.47,-1389.71 -839.36,-31.05 -1335.86,450.57 -1235.13,1306.2 104.54,887.9 1318.77,1143.55 1491.22,1681.74 65.24,203.57 17.12,382.32 -121.81,457.02 -169.96,91.37 -386.03,37.04 -460.18,-92.98 -86.44,-151.52 -63.82,-400.08 -63.82,-591.14z"/>
   <polygon class="fil0" points="13369.62,16291.25 13611.57,16293.48 13688.79,16279.96 13689.12,4976.75 13611.26,4969.27 13369.62,4969.27 "/>
   <polygon class="fil0" points="16581.1,14170.33 16955.92,15416.72 17467.58,15416.72 17467.56,13370.22 17035.27,13377.88 17019.74,14550.6 16654.9,13371.71 16135.76,13371.01 16135.76,15416.72 16570.75,15416.72 "/>
   <path class="fil0" d="M21373.72 13719.23c132.99,0 149.08,-5.84 273.05,35.13 32.54,124.21 28.15,283.98 -2.88,407.52 -117.41,46.01 -135.28,36.11 -270.17,36.11l0 -478.76zm-450.18 1697.49l450.31 -5.19 -0.13 -865.33c314.1,0 289.76,23.85 289.76,413.5 0,187.95 -9.82,287.42 42.57,457.02l445.29 0c-161.37,-589.5 182.81,-855.48 -303.41,-1076.74 225.56,-116.6 324.23,-229.74 272.23,-597.88 -66.96,-474.11 -692.69,-371.09 -1196.62,-371.09l0 2045.71z"/>
   <path class="fil0" d="M14716.87 13371.01c0,449.75 0.77,899.57 -0.03,1349.31 -0.84,474.55 119.73,752.72 613.74,738.89 474.47,-13.29 581.63,-303.16 580.75,-760.43 -0.87,-440.28 -0.07,-880.62 -0.05,-1326.1l-454.47 -1.67 0.26 1414.91c0.56,151.21 21.1,304.72 -149.14,305.87 -169.21,1.14 -143.22,-180.77 -142.6,-327.64l-0.08 -1393.14 -448.38 0z"/>
   <path class="fil0" d="M22845.43 15075.37c-60.87,-115.77 -50.28,-179.47 -50.28,-342.38l-435.25 0c0,384.84 72.9,632.5 413.81,706.68 769.17,167.41 1121.14,-653.57 495.86,-1106.91 -107.85,-78.2 -197.87,-168.62 -305.16,-260.31 -98.19,-83.97 -221.03,-172.45 -112.89,-333.64 263.7,-64.72 270.07,68.81 270.07,311.15l435.25 0c0,-171.39 14.44,-371.5 -80.56,-489.89 -248.58,-309.79 -1004.77,-340.5 -1091.65,227.27 -99.94,653.06 592.66,737.66 716.63,1018.39 100.79,228.23 -60.53,305.52 -255.83,269.64z"/>
   <path class="fil0" d="M15149.57 12028.6l-432.7 -7.69c0,448.66 114.15,714.52 569.63,727.73 665.45,19.31 864.65,-665.53 424.06,-1042.42 -117.67,-100.69 -218.53,-203.73 -345.77,-305.6 -55.6,-44.52 -340.5,-228.51 -148.62,-364.48 74.16,-52.54 179.34,-33.47 223.78,27.5 53.93,73.98 33,185.05 46.55,276.58l420.34 -1.11c41.1,-455.5 -106.7,-682.85 -553.95,-697.22 -427.69,-13.75 -676.76,215.84 -616.02,662.01 44.49,327.03 389.46,478.38 600.75,666.63 380.68,339.14 -54.03,515.26 -156.41,354.33 -41.87,-65.8 -31.64,-211.93 -31.64,-296.26z"/>
   <path class="fil0" d="M17755.26 11022.85c44.09,88.83 89.27,633.5 138.62,967.78l-244.13 -5.73 105.51 -962.05zm-644.5 1682.61l447.04 0 45.66 -343.23 307.75 -5.7 50.46 348.65 463.59 0.28 -361.73 -2041.72 -578.49 -0.21 -374.28 2041.93z"/>
   <polygon class="fil0" points="19513.26,13369.63 19062.65,13383.4 18906.21,14819.08 18783.96,13372.66 18324.25,13371.27 18621.75,15415.69 19180.32,15416.36 "/>
   <path class="fil0" d="M20127.38 13764.57l556.78 -1.83 0 -391.73 -1005.39 0 0 2045.71 1027.16 0 0 -391.73c-170.37,0.62 -417.85,13.42 -578.52,-9.07l-0.26 -441.24 491.72 -6.71 0 -391.73 -491.46 -9.07 -0.03 -402.6z"/>
   <path class="fil0" d="M19663.45 12694.23l1005.13 -4.55 0 -356.59c-103.61,0 -207.25,-0.11 -310.86,0 -134.46,0.15 -180.99,3.03 -259.33,2.03l2.06 -490.54c114.3,0.77 379.69,-3.65 481.07,-3.65l0 -356.59c-89.06,0 -178.26,-0.46 -267.35,0.03 -213.9,3.9 -214.91,4.37 -215.78,-35.71l0 -377.28c0.1,-35.6 -17.79,-38.38 62.41,-36.27l486.01 0.62 0 -356.41 -983.36 -4.73 0 2019.64z"/>
   <path class="fil0" d="M25556.94 13371.01c346.6,1328.13 366.52,748.17 367.96,2045.71l448.43 0c0,-505.16 -42.9,-692.49 88.63,-1121.52 82.99,-270.74 228.66,-656.56 280.04,-925.14l-456.42 9.33 -126.98 618.96c-1.6,4.24 -6.61,20.12 -7.82,16.94 -1.23,-3.19 -5.03,11.51 -8.74,16.99l-120.62 -661.27 -464.48 0z"/>
   <polygon class="fil0" points="16070.47,11051.48 16360.38,11053.31 16366.27,12705.46 16814.68,12705.46 16815.24,11054.16 17115.08,11051.1 17115.08,10663.35 16070.47,10663.35 "/>
   <polygon class="fil0" points="18442.59,11051.48 18732.53,11053.31 18738.42,12705.46 19186.62,12705.46 19187.39,11054.16 19487.2,11051.1 19487.2,10663.35 18442.59,10663.35 "/>
   <polygon class="fil0" points="24423.06,13762.74 24717.14,13762.74 24716.99,15411.53 25167.3,15416.72 25167.3,13762.74 25465.1,13755.88 25465.23,13376.21 24423.06,13371.01 "/>
   <polygon class="fil0" points="17709.51,15415.05 18159.69,15416.72 18159.69,13371.01 17789.6,13369.65 17709.54,13377.88 "/>
   <polygon class="fil0" points="23808.92,15416.72 24257.55,15416.72 24257.55,13371.01 23808.92,13371.01 "/>
  </g>
 </g>
</svg>
